<svg width="103" height="43" viewBox="0 0 103 43" fill="none" xmlns="http://www.w3.org/2000/svg">
<path d="M9.12503 42.2633H4.43727e-06V2.93656e-05H15.8487L33.2583 36.8603C33.3784 37.1605 33.6185 37.4607 34.0387 37.3406C34.6391 37.1605 34.579 36.6802 34.3989 36.2C33.7986 34.5791 33.1383 33.1383 33.1383 31.2172V2.93656e-05H42.2633V42.2633H26.4146L9.00496 5.40301C8.8849 5.10284 8.64476 4.80268 8.22453 4.92274C7.6242 5.10284 7.68424 5.58311 7.86434 6.06337C8.46467 7.68426 9.12503 9.12505 9.12503 11.0461V42.2633ZM58.1364 42.2633H49.0114V2.93656e-05H65.3404L74.8256 32.4179C75.1258 33.4985 75.1858 35.0593 75.1858 36.5001C75.1858 36.9804 75.4259 37.2205 75.9062 37.2205C76.3864 37.2205 76.6266 36.9804 76.6266 36.5001C76.6266 35.0593 76.6866 33.4985 76.9868 32.4179L86.472 2.93656e-05H102.801V42.2633H93.676V10.1456C93.676 8.22456 94.1562 6.72373 94.6965 5.10284C94.8766 4.56254 94.6965 4.20235 94.1562 4.08228C93.8561 4.02225 93.5559 4.20235 93.4358 4.62258L82.0896 42.2633H69.7228L58.3765 4.62258C58.2565 4.20235 57.9563 4.02225 57.6561 4.08228C57.1158 4.20235 56.9357 4.56254 57.1158 5.10284C57.6561 6.72373 58.1364 8.22456 58.1364 10.1456V42.2633Z" fill="white"/>
</svg>
